<?xml version="1.0" encoding="UTF-8" standalone="no"?>
<svg width="121px" height="18px" viewBox="0 0 121 18" version="1.1" xmlns="http://www.w3.org/2000/svg" xmlns:xlink="http://www.w3.org/1999/xlink" xmlns:sketch="http://www.bohemiancoding.com/sketch/ns">
    <!-- Generator: Sketch 3.0.3 (7891) - http://www.bohemiancoding.com/sketch -->
    <title>Slice 1</title>
    <desc>Created with Sketch.</desc>
    <defs></defs>
    <g id="Page-1" stroke="none" stroke-width="1" fill="none" fill-rule="evenodd" sketch:type="MSPage">
        <path d="M19.5734961,5.88567719 C19.1958878,5.4492904 19.1000119,5.01129983 19.158189,4.63200738 C19.2843946,3.80774795 20.2248471,3.79483757 20.2164696,4.66977625 C20.2111173,5.20760172 19.9590164,5.59242719 19.5734961,5.88567719 L19.5734961,5.88567719 Z M54.8486092,10.0586961 C54.2476008,7.97627625 52.0934185,6.47835172 52.2179951,5.41368662 C51.7466829,4.9626253 50.6159525,4.95027625 49.2006971,5.47286587 C48.4801541,7.08217247 47.1451832,8.85763002 45.6685704,10.1516347 C45.6601929,10.1208423 45.6534444,10.0898895 45.6448342,10.0586961 C45.0438258,7.97627625 42.8891005,6.47835172 43.0142201,5.41368662 C42.5429078,4.9626253 41.4120223,4.95027625 39.9971548,5.47286587 C39.5519059,6.43921964 37.9825976,8.65771964 37.1067605,9.86463945 C35.4261399,12.1804083 33.7307812,13.5703187 32.1482084,14.1608281 C31.8338969,14.2782244 31.2048859,14.4758895 30.5332117,14.4758895 C29.9632311,14.4758895 29.494944,14.332031 29.1420804,14.0483234 C28.8181503,13.788031 28.5833474,13.4202857 28.4633474,12.9850215 C28.2055064,12.046814 28.32954,10.7589036 28.8034896,9.45086587 C29.2847307,8.12558757 30.125041,6.99845549 31.1630759,6.38557342 C31.8192362,5.99898379 32.4850927,5.93122436 32.8678982,6.25454512 C33.4602963,6.75323851 32.9107165,7.82191304 32.4823002,8.46310172 C31.6761981,9.668097 30.2370514,10.6831253 29.3923972,11.2689838 C29.3923972,11.2689838 29.4154353,12.0766442 29.6116861,12.0344649 C31.2247437,11.4618376 33.1595594,10.4451253 34.1465536,9.06563945 C35.1342459,7.68495078 35.0078077,5.85648851 33.2224683,5.27985172 C32.8024295,5.14345078 32.3396499,5.07761587 31.8274586,5.07761587 C31.1407359,5.07929983 29.7777624,5.21040832 28.3649117,6.08013474 C26.9278594,6.9658187 25.8927721,8.53318662 25.5952931,10.2725593 C25.4253384,11.264413 25.5050798,12.1697432 25.8135737,12.9512621 C23.7707812,14.3022008 21.764679,14.5847857 21.1912078,13.9279602 C20.7395206,13.410663 20.902339,12.4986772 21.4087902,11.637531 C21.9734185,10.6779932 22.7529919,9.74660172 23.1157068,9.19169606 C23.2604515,8.96804983 23.38433,8.66613945 23.4020158,8.35468662 C23.4254418,7.94588474 23.205765,7.62023851 23.1049247,7.51631398 C22.5707036,6.96926681 21.2821192,7.09572436 20.2033603,6.42045549 C20.7319964,5.94245078 21.0367669,5.3472904 21.033509,4.64074795 C21.0286221,3.6387904 20.3530695,3.05285172 19.5241619,3.16254983 C18.4998568,3.29694606 17.9040455,4.43610644 18.2967023,5.78945078 C18.561447,6.70215832 19.3080533,7.64958757 20.7475103,8.15341304 C19.6415245,9.34429512 18.46433,11.3348187 18.5373228,12.8580027 C18.6131858,14.4419696 19.5896305,15.4191489 21.0667088,15.5546678 C22.2159007,15.6586725 24.2780856,15.1900498 26.2620029,13.7806536 C26.3091651,13.8470498 26.3529143,13.9161725 26.4046532,13.9792008 C27.2251832,14.990781 28.5475879,15.5574744 30.131712,15.5574744 C31.0006454,15.5574744 33.3492944,15.3241253 36.0698115,12.4798329 C37.5907941,10.8888895 39.4775943,8.34514417 40.5369609,6.85499795 C41.3482601,8.27786587 42.7460623,9.44148379 43.3774004,10.8748564 C43.9241877,12.1199461 43.7130436,13.2589461 43.1038128,13.9408706 C42.5889841,14.519031 41.8225976,14.7444413 41.007032,14.6887904 C39.9022097,14.6128517 39.3261787,13.9076725 39.2652091,13.0575923 C39.2074974,12.2528989 39.7550604,11.7991913 39.8942201,11.6122715 C39.5642395,11.3348187 39.0532117,11.1886347 38.7326945,11.1886347 C37.9943106,11.1886347 37.4376719,11.6578187 37.2810591,12.4132762 C37.1394948,13.0947196 37.4638904,13.9403093 38.0894883,14.5179083 C38.8152285,15.1886064 39.8493849,15.5069555 40.9505614,15.5580357 C43.5691522,15.6783989 45.9089583,13.6895593 45.815487,11.1142998 C47.0708716,10.0656725 48.5798309,8.7097621 49.7721515,6.91265361 C50.5877172,8.3102621 51.9582149,9.46064889 52.5809428,10.8748564 C53.1287385,12.1199461 52.9163532,13.2589461 52.3075879,13.9408706 C51.7927592,14.519031 51.026295,14.7444413 50.2098762,14.6887904 C49.1052866,14.6128517 48.5301089,13.9076725 48.4689066,13.0575923 C48.4111949,12.2528989 48.9589906,11.7991913 49.0987708,11.6122715 C48.7679369,11.3348187 48.256754,11.1886347 47.9360042,11.1886347 C47.198008,11.1886347 46.6413694,11.6578187 46.4845239,12.4132762 C46.3430371,13.0947196 46.6674327,13.9403093 47.2929531,14.5179083 C48.0186932,15.1886064 49.0530824,15.5069555 50.1543364,15.5580357 C53.1213694,15.6946772 55.7328238,13.1234272 54.8486092,10.0586961 L54.8486092,10.0586961 Z M9.03653422,0.195889455 C4.2826105,0.31761587 2.70577792,2.30052153 0.770108883,1.1355404 C-0.155295125,2.44614417 0.327652516,4.50747436 2.05434935,4.42063002 C3.77879667,4.33378568 5.35555168,1.70135172 8.8573487,1.15350266 C9.82432996,1.00226681 14.7826493,0.586729077 14.4108587,6.90760172 C14.2820934,9.09490832 13.4749053,11.161531 12.0607359,12.5694838 C10.4348018,14.190097 8.4495659,14.5762857 6.65088458,14.6238376 C5.84392918,14.6456489 3.65747798,14.6679413 2.77667643,14.7748329 C3.63335387,14.1248234 4.63206105,13.003064 5.63301774,11.0966583 C5.99340559,10.4100829 6.29460791,9.6248753 6.63234547,8.80165832 C7.61701257,6.4062621 8.63456913,3.92891304 10.228467,3.57776681 C10.1444592,3.14907813 8.18482123,2.50131398 6.16444631,4.35126681 C4.82071005,5.57983757 4.02414896,8.31082342 3.64801451,9.4145404 C3.16723881,10.8256206 2.07032866,14.1827196 1.84545471,15.0182055 C1.68217094,15.6244319 2.43498283,15.5804885 2.99014767,15.5484932 C5.16992789,15.4219555 6.21424592,15.5642904 7.23288846,15.5642904 C9.21424592,15.5642904 10.8712078,15.2651064 12.4646402,14.4239272 C15.5607488,12.7879178 17.5206195,9.41125266 17.2295788,6.21100266 C16.8373099,1.90270549 12.8702511,0.0966960586 9.03653422,0.195889455 M113.145261,6.1625687 C112.508415,5.81928096 112.274931,5.42571493 112.202791,4.99470078 C112.124446,4.52880455 112.287342,4.11639417 112.601499,4.07678096 C112.976935,4.02842719 113.234466,4.42263474 113.2174,5.28241776 C113.211195,5.58400738 113.185597,5.87773851 113.145261,6.1625687 L113.145261,6.1625687 Z M76.1067605,5.89080927 C75.7293849,5.45498379 75.6333539,5.01659229 75.6914534,4.63713945 C75.8177365,3.81368191 76.7580339,3.80021021 76.7495788,4.67474795 C76.7443817,5.21241304 76.4925911,5.59836115 76.1067605,5.89080927 L76.1067605,5.89080927 Z M120.197879,12.0617291 C118.49135,14.0078281 116.695616,14.5847857 115.997491,13.9330923 C115.521214,13.488847 115.708157,12.5039696 116.214685,11.6429036 C116.780167,10.682564 117.558965,9.75157342 117.92199,9.19698851 C118.196586,8.77463474 118.387407,8.07466776 117.943709,7.55480455 C117.462003,6.99196021 115.440542,6.9658187 113.976806,6.50361115 C114.059805,6.00235172 114.094711,5.48529512 114.055927,4.96463002 C113.984563,3.99418662 113.458642,3.07698851 112.499883,3.16399323 C111.944485,3.21435172 111.455022,3.61272908 111.313069,4.39793662 C111.150949,5.29468662 111.457349,6.54691304 112.84817,7.45023851 C112.392837,8.88008285 111.62102,10.0052102 111.12923,10.7207338 C110.300788,11.9293376 109.207834,13.0595168 107.989217,13.7955687 C107.718499,13.9395074 107.450885,14.0623564 107.185597,14.1608281 C106.870665,14.2782244 106.242352,14.4758895 105.5706,14.4758895 C105.000464,14.4758895 104.531945,14.332031 104.179004,14.0483234 C103.854763,13.788031 103.620503,13.4202857 103.50027,12.9850215 C103.241964,12.046814 103.366075,10.7589036 103.840801,9.45086587 C104.320956,8.12558757 105.161809,6.99845549 106.200464,6.38557342 C106.856702,5.99898379 107.521473,5.93122436 107.905442,6.25454512 C108.498073,6.75323851 107.948105,7.82191304 107.519921,8.46310172 C106.713199,9.668097 105.417788,10.6195357 104.429553,11.2689838 C104.429553,11.2689838 104.452824,12.0766442 104.648299,12.0344649 C106.261744,11.4618376 108.197103,10.4451253 109.183787,9.06563945 C110.172022,7.68495078 110.044808,5.85648851 108.259934,5.27985172 C107.839508,5.14345078 107.376418,5.07761587 106.864459,5.07761587 C106.177969,5.07929983 104.815073,5.21040832 103.401757,6.08013474 C101.96517,6.9658187 100.929618,8.53318662 100.632526,10.2725593 C100.455668,11.3038659 100.547976,12.2425545 100.888506,13.0446819 C99.281266,13.9803234 97.5708587,14.5835829 97.0837223,13.956347 C96.8998826,13.7210734 96.8905743,13.2316017 97.0674327,12.6356395 C97.2062821,12.1674979 98.1316861,9.84074323 98.4667863,8.89323379 C98.7576719,8.07041776 98.88954,6.94272436 98.3426751,6.04846021 C97.8834638,5.29669134 96.9184993,4.93038945 95.8713112,5.13719606 C95.1157844,5.28626681 94.3199214,5.77317247 93.3658167,6.66839889 C93.0578658,6.95763945 92.7770643,7.25449795 92.5172065,7.55055455 C92.5303933,7.03718662 92.4411884,6.50954512 92.1588355,6.04846021 C91.6996241,5.29669134 90.7346596,4.93038945 89.6874715,5.13719606 C88.9327204,5.28626681 88.1360817,5.77317247 87.181977,6.66839889 C86.9965859,6.84321021 86.8220546,7.020347 86.6545045,7.19748379 C86.6545045,7.19748379 87.0089971,6.28036587 87.024511,6.24107342 C87.0989777,6.04902153 87.1517249,5.74061587 87.0563144,5.50702625 C86.9826234,5.32539889 86.7855969,5.18955927 86.4745433,5.18955927 L84.7160429,5.18955927 L81.9437094,12.3670074 C80.2030501,14.11913 78.4166247,14.578531 77.7245497,13.9330923 C77.2480404,13.488847 77.4359137,12.5039696 77.9418994,11.6429036 C78.5066053,10.682564 79.2869544,9.75157342 79.6484282,9.19698851 C79.9230242,8.77463474 80.1208264,8.06953568 79.6709234,7.55480455 C79.1574133,6.96806398 77.8374133,7.1145687 76.7362369,6.42526681 C77.2652608,5.94782342 77.5698762,5.35266304 77.5664631,4.64547908 C77.5621192,3.64440361 76.8864114,3.05798379 76.057659,3.16696021 C75.032966,3.30247908 74.4377753,4.44179983 74.8294237,5.79482342 C74.8884541,5.99786115 74.9733151,6.20274323 75.0816797,6.40353568 C74.4045756,6.63063002 73.6554095,6.66102153 73.0827915,6.51515832 L73.0313629,6.42382342 C72.0600378,4.99077153 70.5851315,4.86343191 69.2458943,5.31361115 C69.5992233,6.60280455 70.6889971,6.93149795 71.1249376,7.13004512 C72.2337159,9.7580687 70.5297469,14.8956772 67.3760817,14.6353045 C66.3145433,14.5474178 65.1134573,13.6204366 65.5507165,11.0766913 C65.8061528,9.59416304 66.6557715,8.15397436 67.8056616,7.17727625 C67.9654547,7.04175738 67.9728238,7.02427625 68.2513759,6.79373379 C68.0090488,6.50216776 67.4607876,6.22583757 66.8341813,6.22583757 L61.8264502,6.22246964 C61.9429596,5.80973851 62.1669802,5.03407342 62.501072,4.20163474 C63.021796,2.90185644 63.673147,1.70792719 64.8161334,1.40008285 C66.9513112,0.827375304 67.7056745,2.96688945 66.668105,4.08969134 C66.7058038,4.17541304 67.1208781,4.2465404 67.2978917,4.2465404 C68.0473681,4.2465404 68.6276654,3.81031398 68.7771418,3.13440361 C69.2015245,1.20947436 66.8642782,0.0222007756 64.5307553,0.510229077 C61.844136,1.06994606 60.3114405,3.43358757 59.141072,6.22246964 L55.2447566,6.22246964 L55.9056486,7.14239417 L58.7708329,7.14239417 C58.7708329,7.14239417 56.4691134,13.1261536 56.0893332,14.1141583 C55.7668768,14.9533329 54.9420804,16.7087432 54.2238645,17.1678234 C55.7507424,17.1678234 57.5924748,17.1644555 58.5903287,14.6330593 L58.5915698,14.6353045 L61.4846014,7.14239417 L64.8247437,7.14239417 C63.1269027,8.61610172 62.1146984,11.5388989 63.6098503,13.6885168 C64.4490746,14.8956772 65.86433,15.5116866 67.3110785,15.5597196 C70.4019899,15.6606772 73.2060494,12.9226347 73.743063,9.80137059 C73.8888936,8.95682342 73.8331212,8.15557813 73.5881567,7.45504983 C74.3014082,7.51374795 75.0013177,7.38817247 75.6126428,7.12747908 C76.0129014,7.54245549 76.5596111,7.90619134 77.2807747,8.15894606 C76.1748665,9.34878568 74.9976719,11.3406725 75.0706648,12.862413 C75.1591716,14.7112432 76.4656745,15.7964366 78.3817184,15.5121678 C79.4064114,15.3603706 80.3822356,14.8309649 81.3060882,14.0168093 L80.7530177,15.4481772 L82.5037611,15.4481772 C82.9971031,15.4481772 83.5455194,15.2488281 83.7836577,14.6330593 C84.0404127,13.9696583 84.268467,13.3808329 84.268467,13.3808329 L84.2661399,13.3811536 L85.570083,10.0052102 C86.1378917,9.15256398 87.3402188,7.55961587 88.481266,6.87047436 C89.1537934,6.46600266 89.6804903,6.38613474 89.8899279,6.67858285 C90.0644592,6.92195549 90.0636835,7.40300738 89.8860494,7.99896964 C89.7526299,8.45115361 89.5780985,8.91777153 89.4392492,9.277097 L87.0563144,15.4481772 L88.8055064,15.4481772 C89.2988484,15.4481772 89.8480404,15.2488281 90.0861787,14.6330593 C90.3413823,13.9696583 92.0261916,9.60963945 92.0261916,9.60963945 C92.6545045,8.72579983 93.6823002,7.46338945 94.6651057,6.87047436 C95.3360817,6.46600266 95.86433,6.38557342 96.0737676,6.67858285 C96.2482989,6.92251681 96.2467475,7.40300738 96.0706648,7.99896964 C95.9372453,8.44746493 95.7611625,8.91777153 95.6339486,9.24871021 L94.8512724,11.2769225 C94.5526299,12.046814 94.1515956,13.5006347 94.8148148,14.5867102 C95.1824941,15.1872432 95.874414,15.5205876 96.670277,15.5574744 C98.0820417,15.6216253 99.9615504,14.8355357 101.387278,13.9041442 C101.40667,13.9285215 101.422184,13.955064 101.441576,13.9792008 C102.262261,14.990781 103.584821,15.5574744 105.16879,15.5574744 C105.946036,15.5574744 108.004731,15.2606159 110.262779,13.1096347 C110.512552,12.8848659 110.770859,12.6181583 111.029165,12.3148045 C111.043903,12.2990074 111.071053,12.2658093 111.071053,12.2658093 C111.328583,11.960531 111.58689,11.6226159 111.839766,11.2425215 C111.974737,11.0434932 113.019598,9.66865832 113.630846,7.86657813 C114.124963,8.08308757 114.697426,8.25958285 115.351337,8.38499795 C114.308027,9.58911115 113.274802,11.43313 113.343839,12.862413 C113.421408,14.4987432 114.3887,15.5878659 116.052565,15.5624461 C117.015978,15.54713 118.519275,14.9117149 120.309579,13.0207055 L120.197879,12.0617291 L120.197879,12.0617291 Z" id="Fill-1" fill="#909090" sketch:type="MSShapeGroup"></path>
    </g>
</svg>