<?xml version="1.0" encoding="UTF-8" standalone="no"?>
<svg width="130px" height="110px" viewBox="0 0 130 110" version="1.1" xmlns="http://www.w3.org/2000/svg" xmlns:xlink="http://www.w3.org/1999/xlink" xmlns:sketch="http://www.bohemiancoding.com/sketch/ns">
    <!-- Generator: Sketch 3.0.3 (7891) - http://www.bohemiancoding.com/sketch -->
    <title>Rectangle 1 + TRY </title>
    <desc>Created with Sketch.</desc>
    <defs>
        <linearGradient x1="50%" y1="0%" x2="50%" y2="100%" id="linearGradient-1">
            <stop stop-color="#FF0000" offset="0%"></stop>
            <stop stop-color="#DC0000" offset="100%"></stop>
        </linearGradient>
        <filter x="-50%" y="-50%" width="200%" height="200%" filterUnits="objectBoundingBox" id="filter-2">
            <feOffset dx="0" dy="3" in="SourceAlpha" result="shadowOffsetOuter1"></feOffset>
            <feGaussianBlur stdDeviation="3" in="shadowOffsetOuter1" result="shadowBlurOuter1"></feGaussianBlur>
            <feColorMatrix values="0 0 0 0 0   0 0 0 0 0   0 0 0 0 0  0 0 0 0.182648324 0" in="shadowBlurOuter1" type="matrix" result="shadowMatrixOuter1"></feColorMatrix>
            <feMerge>
                <feMergeNode in="shadowMatrixOuter1"></feMergeNode>
                <feMergeNode in="SourceGraphic"></feMergeNode>
            </feMerge>
        </filter>
    </defs>
    <g id="Page-4" stroke="none" stroke-width="1" fill="none" fill-rule="evenodd" sketch:type="MSPage">
        <g id="Rectangle-1-+-TRY-" sketch:type="MSLayerGroup" transform="translate(5.000000, 3.000000)">
            <path d="M46.1455795,8.1537691e-16 L33.2690369,0.166697002 L1.56919343e-15,45.6253422 L13.755466,58.1712752 L28.6882177,43.5175536 L26.4445408,98 L59.9999992,98 C59.9999992,98 60,5.30395952 60,7.64321024 C47.7428813,7.64321024 46.1455795,8.1537691e-16 46.1455795,8.1537691e-16 Z M73.8544205,8.1537691e-16 L86.7309631,0.166697002 L120,45.6253422 L106.244534,58.1712752 L91.3117823,43.5175536 L93.5554592,98 L60.0000008,98 C60.0000008,98 60,5.30395952 60,7.64321024 C72.2571187,7.64321024 73.8544205,8.1537691e-16 73.8544205,8.1537691e-16 Z" id="Rectangle-1" fill="url(#linearGradient-1)" filter="url(#filter-2)" sketch:type="MSShapeGroup"></path>
            <path d="M35.1546392,21 C34.3628866,21 34,21.8549932 34,22.6415869 C34,23.5307798 34.428866,24.3173735 35.1546392,24.3173735 L40.2680412,24.3173735 L40.2680412,44.8030096 C40.2680412,45.5896033 41.1257732,46 42.0164948,46 C42.8742268,46 43.7649485,45.5896033 43.7649485,44.8030096 L43.7649485,24.3173735 L48.8453608,24.3173735 C49.6041237,24.3173735 50,23.49658 50,22.6073871 C50,21.8207934 49.6371134,21 48.8453608,21 L35.1546392,21 Z M53,44.7057221 C53,45.4891008 53.8515284,45.8978202 54.7030568,45.8978202 C55.5873362,45.8978202 56.4388646,45.4891008 56.4388646,44.7057221 L56.4388646,35.2029973 L59.7467249,35.2029973 L64.5283843,44.9441417 C64.8558952,45.5912807 65.3144105,46 65.9039301,46 C66.8864629,46 68,45.0803815 68,44.1607629 C68,44.0245232 67.9672489,43.8201635 67.8689956,43.6498638 L63.2838428,34.6920981 C65.9039301,34.0108992 67.9017467,32.0013624 67.9017467,27.9482289 C67.9017467,22.6689373 64.4956332,21 60.3689956,21 L54.1462882,21 C53.4585153,21 53,21.5449591 53,22.1580381 L53,44.7057221 Z M60.4262295,24 C63.192623,24 65,25.0756303 65,28 C65,30.9243697 63.192623,32 60.4262295,32 L56,32 L56,24 L60.4262295,24 Z M76.2406015,44.8030096 C76.2406015,45.5896033 77.1203008,46 78.0338346,46 C78.9135338,46 79.8270677,45.5896033 79.8270677,44.8030096 L79.8270677,36.1504788 C79.8270677,36.0136799 79.8609023,35.876881 79.8947368,35.7742818 L86.8984962,23.0177839 C87,22.8125855 87,22.6415869 87,22.504788 C87,21.6155951 85.7142857,21 84.7669173,21 C84.1917293,21 83.8533835,21.2735978 83.5827068,21.8207934 L78.0338346,32.6621067 L72.4511278,21.8207934 C72.1466165,21.2735978 71.8421053,21 71.2669173,21 C70.3195489,21 69,21.6155951 69,22.504788 C69,22.6415869 69.0338346,22.8125855 69.1353383,23.0177839 L76.1390977,35.7742818 C76.1729323,35.876881 76.2406015,36.0136799 76.2406015,36.1504788 L76.2406015,44.8030096 Z M58,70.4355495 L58,60.5644505 C58,55.0691995 54.6926503,53 50.4832962,53 C46.2405345,53 43,55.0691995 43,60.5644505 L43,70.4355495 C43,75.9308005 46.2405345,78 50.4832962,78 C54.6926503,78 58,75.9308005 58,70.4355495 Z M54,70.7704918 C54,73.6557377 52.4810127,75 49.9831224,75 C47.4514768,75 46,73.6557377 46,70.7704918 L46,61.2295082 C46,58.3442623 47.4514768,57 49.9831224,57 C52.4810127,57 54,58.3442623 54,61.2295082 L54,70.7704918 Z M75.2754881,78 C76.154013,78 77,77.5896033 77,76.8030096 L77,54.1627907 C77,53.3419973 76.154013,53 75.2754881,53 C74.4295011,53 73.5509761,53.3419973 73.5509761,54.1627907 L73.5509761,69.8604651 L66.3275488,55.0519836 C65.5466377,53.4787962 64.9609544,53 63.7245119,53 C62.845987,53 62,53.3419973 62,54.1969904 L62,76.8030096 C62,77.5896033 62.8785249,78 63.7245119,78 C64.6030369,78 65.4490239,77.5896033 65.4490239,76.8030096 L65.4490239,61.1053352 L73.2255965,76.6662107 C73.681128,77.5554036 74.4295011,78 75.2754881,78 Z" id="TRY-" fill="#FFFFFF" sketch:type="MSShapeGroup"></path>
        </g>
    </g>
</svg>