<?xml version="1.0" encoding="UTF-8" standalone="no"?>
<svg width="911px" height="420px" viewBox="0 0 911 420" version="1.1" xmlns="http://www.w3.org/2000/svg" xmlns:xlink="http://www.w3.org/1999/xlink" xmlns:sketch="http://www.bohemiancoding.com/sketch/ns">
    <!-- Generator: Sketch 3.0.3 (7891) - http://www.bohemiancoding.com/sketch -->
    <title>vbg1</title>
    <desc>Created with Sketch.</desc>
    <defs></defs>
    <g id="Page-2" stroke="none" stroke-width="1" fill="none" fill-rule="evenodd" sketch:type="MSPage">
        <rect id="Rectangle-1" stroke="#979797" fill-opacity="0.0477524909" fill="#000000" sketch:type="MSShapeGroup" x="0" y="1" width="911" height="419"></rect>
        <g id="Group-+-Group-2" sketch:type="MSLayerGroup" transform="translate(0.000000, 1.000000)" fill-opacity="0.156363225">
            <g id="Group" sketch:type="MSShapeGroup">
                <g id="Rectangle-2-+-Rectangle-3">
                    <rect id="Rectangle-2" fill="#000000" transform="translate(71.000000, 71.000000) rotate(-315.000000) translate(-71.000000, -71.000000) " x="21" y="21" width="100" height="100"></rect>
                    <rect id="Rectangle-3" fill="#FFFFFF" transform="translate(70.500000, 70.500000) rotate(-315.000000) translate(-70.500000, -70.500000) " x="42" y="42" width="57" height="57"></rect>
                </g>
                <g id="Rectangle-2-+-Rectangle-6" transform="translate(330.000000, 0.000000)">
                    <rect id="Rectangle-2" fill="#000000" transform="translate(71.000000, 71.000000) rotate(-315.000000) translate(-71.000000, -71.000000) " x="21" y="21" width="100" height="100"></rect>
                    <rect id="Rectangle-3" fill="#FFFFFF" transform="translate(70.500000, 70.500000) rotate(-315.000000) translate(-70.500000, -70.500000) " x="42" y="42" width="57" height="57"></rect>
                </g>
                <g id="Rectangle-2-+-Rectangle-4" transform="translate(110.000000, 0.000000)">
                    <rect id="Rectangle-2" fill="#000000" transform="translate(71.000000, 71.000000) rotate(-315.000000) translate(-71.000000, -71.000000) " x="21" y="21" width="100" height="100"></rect>
                    <rect id="Rectangle-3" fill="#FFFFFF" transform="translate(70.500000, 70.500000) rotate(-315.000000) translate(-70.500000, -70.500000) " x="42" y="42" width="57" height="57"></rect>
                </g>
                <g id="Rectangle-2-+-Rectangle-5" transform="translate(220.000000, 0.000000)">
                    <rect id="Rectangle-2" fill="#000000" transform="translate(71.000000, 71.000000) rotate(-315.000000) translate(-71.000000, -71.000000) " x="21" y="21" width="100" height="100"></rect>
                    <rect id="Rectangle-3" fill="#FFFFFF" transform="translate(70.500000, 70.500000) rotate(-315.000000) translate(-70.500000, -70.500000) " x="42" y="42" width="57" height="57"></rect>
                </g>
                <g id="Rectangle-2-+-Rectangle-10" transform="translate(440.000000, 0.000000)">
                    <rect id="Rectangle-2" fill="#000000" transform="translate(71.000000, 71.000000) rotate(-315.000000) translate(-71.000000, -71.000000) " x="21" y="21" width="100" height="100"></rect>
                    <rect id="Rectangle-3" fill="#FFFFFF" transform="translate(70.500000, 70.500000) rotate(-315.000000) translate(-70.500000, -70.500000) " x="42" y="42" width="57" height="57"></rect>
                </g>
                <g id="Rectangle-2-+-Rectangle-9" transform="translate(769.000000, 0.000000)">
                    <rect id="Rectangle-2" fill="#000000" transform="translate(71.000000, 71.000000) rotate(-315.000000) translate(-71.000000, -71.000000) " x="21" y="21" width="100" height="100"></rect>
                    <rect id="Rectangle-3" fill="#FFFFFF" transform="translate(70.500000, 70.500000) rotate(-315.000000) translate(-70.500000, -70.500000) " x="42" y="42" width="57" height="57"></rect>
                </g>
                <g id="Rectangle-2-+-Rectangle-8" transform="translate(550.000000, 0.000000)">
                    <rect id="Rectangle-2" fill="#000000" transform="translate(71.000000, 71.000000) rotate(-315.000000) translate(-71.000000, -71.000000) " x="21" y="21" width="100" height="100"></rect>
                    <rect id="Rectangle-3" fill="#FFFFFF" transform="translate(70.500000, 70.500000) rotate(-315.000000) translate(-70.500000, -70.500000) " x="42" y="42" width="57" height="57"></rect>
                </g>
                <g id="Rectangle-2-+-Rectangle-7" transform="translate(660.000000, 0.000000)">
                    <rect id="Rectangle-2" fill="#000000" transform="translate(71.000000, 71.000000) rotate(-315.000000) translate(-71.000000, -71.000000) " x="21" y="21" width="100" height="100"></rect>
                    <rect id="Rectangle-3" fill="#FFFFFF" transform="translate(70.500000, 70.500000) rotate(-315.000000) translate(-70.500000, -70.500000) " x="42" y="42" width="57" height="57"></rect>
                </g>
            </g>
            <g id="Group-2" transform="translate(0.000000, 54.000000)" sketch:type="MSShapeGroup">
                <g id="Rectangle-2-+-Rectangle-3">
                    <rect id="Rectangle-2" fill="#000000" transform="translate(71.000000, 71.000000) rotate(-315.000000) translate(-71.000000, -71.000000) " x="21" y="21" width="100" height="100"></rect>
                    <rect id="Rectangle-3" fill="#FFFFFF" transform="translate(70.500000, 70.500000) rotate(-315.000000) translate(-70.500000, -70.500000) " x="42" y="42" width="57" height="57"></rect>
                </g>
                <g id="Rectangle-2-+-Rectangle-6" transform="translate(330.000000, 0.000000)">
                    <rect id="Rectangle-2" fill="#000000" transform="translate(71.000000, 71.000000) rotate(-315.000000) translate(-71.000000, -71.000000) " x="21" y="21" width="100" height="100"></rect>
                    <rect id="Rectangle-3" fill="#FFFFFF" transform="translate(70.500000, 70.500000) rotate(-315.000000) translate(-70.500000, -70.500000) " x="42" y="42" width="57" height="57"></rect>
                </g>
                <g id="Rectangle-2-+-Rectangle-4" transform="translate(110.000000, 0.000000)">
                    <rect id="Rectangle-2" fill="#000000" transform="translate(71.000000, 71.000000) rotate(-315.000000) translate(-71.000000, -71.000000) " x="21" y="21" width="100" height="100"></rect>
                    <rect id="Rectangle-3" fill="#FFFFFF" transform="translate(70.500000, 70.500000) rotate(-315.000000) translate(-70.500000, -70.500000) " x="42" y="42" width="57" height="57"></rect>
                </g>
                <g id="Rectangle-2-+-Rectangle-5" transform="translate(220.000000, 0.000000)">
                    <rect id="Rectangle-2" fill="#000000" transform="translate(71.000000, 71.000000) rotate(-315.000000) translate(-71.000000, -71.000000) " x="21" y="21" width="100" height="100"></rect>
                    <rect id="Rectangle-3" fill="#FFFFFF" transform="translate(70.500000, 70.500000) rotate(-315.000000) translate(-70.500000, -70.500000) " x="42" y="42" width="57" height="57"></rect>
                </g>
                <g id="Rectangle-2-+-Rectangle-10" transform="translate(440.000000, 0.000000)">
                    <rect id="Rectangle-2" fill="#000000" transform="translate(71.000000, 71.000000) rotate(-315.000000) translate(-71.000000, -71.000000) " x="21" y="21" width="100" height="100"></rect>
                    <rect id="Rectangle-3" fill="#FFFFFF" transform="translate(70.500000, 70.500000) rotate(-315.000000) translate(-70.500000, -70.500000) " x="42" y="42" width="57" height="57"></rect>
                </g>
                <g id="Rectangle-2-+-Rectangle-9" transform="translate(769.000000, 0.000000)">
                    <rect id="Rectangle-2" fill="#000000" transform="translate(71.000000, 71.000000) rotate(-315.000000) translate(-71.000000, -71.000000) " x="21" y="21" width="100" height="100"></rect>
                    <rect id="Rectangle-3" fill="#FFFFFF" transform="translate(70.500000, 70.500000) rotate(-315.000000) translate(-70.500000, -70.500000) " x="42" y="42" width="57" height="57"></rect>
                </g>
                <g id="Rectangle-2-+-Rectangle-8" transform="translate(550.000000, 0.000000)">
                    <rect id="Rectangle-2" fill="#000000" transform="translate(71.000000, 71.000000) rotate(-315.000000) translate(-71.000000, -71.000000) " x="21" y="21" width="100" height="100"></rect>
                    <rect id="Rectangle-3" fill="#FFFFFF" transform="translate(70.500000, 70.500000) rotate(-315.000000) translate(-70.500000, -70.500000) " x="42" y="42" width="57" height="57"></rect>
                </g>
                <g id="Rectangle-2-+-Rectangle-7" transform="translate(660.000000, 0.000000)">
                    <rect id="Rectangle-2" fill="#000000" transform="translate(71.000000, 71.000000) rotate(-315.000000) translate(-71.000000, -71.000000) " x="21" y="21" width="100" height="100"></rect>
                    <rect id="Rectangle-3" fill="#FFFFFF" transform="translate(70.500000, 70.500000) rotate(-315.000000) translate(-70.500000, -70.500000) " x="42" y="42" width="57" height="57"></rect>
                </g>
            </g>
        </g>
        <g id="Group-+-Group-3" sketch:type="MSLayerGroup" transform="translate(0.000000, 113.000000)" fill-opacity="0.156363225">
            <g id="Group" sketch:type="MSShapeGroup">
                <g id="Rectangle-2-+-Rectangle-3">
                    <rect id="Rectangle-2" fill="#000000" transform="translate(71.000000, 71.000000) rotate(-315.000000) translate(-71.000000, -71.000000) " x="21" y="21" width="100" height="100"></rect>
                    <rect id="Rectangle-3" fill="#FFFFFF" transform="translate(70.500000, 70.500000) rotate(-315.000000) translate(-70.500000, -70.500000) " x="42" y="42" width="57" height="57"></rect>
                </g>
                <g id="Rectangle-2-+-Rectangle-6" transform="translate(330.000000, 0.000000)">
                    <rect id="Rectangle-2" fill="#000000" transform="translate(71.000000, 71.000000) rotate(-315.000000) translate(-71.000000, -71.000000) " x="21" y="21" width="100" height="100"></rect>
                    <rect id="Rectangle-3" fill="#FFFFFF" transform="translate(70.500000, 70.500000) rotate(-315.000000) translate(-70.500000, -70.500000) " x="42" y="42" width="57" height="57"></rect>
                </g>
                <g id="Rectangle-2-+-Rectangle-4" transform="translate(110.000000, 0.000000)">
                    <rect id="Rectangle-2" fill="#000000" transform="translate(71.000000, 71.000000) rotate(-315.000000) translate(-71.000000, -71.000000) " x="21" y="21" width="100" height="100"></rect>
                    <rect id="Rectangle-3" fill="#FFFFFF" transform="translate(70.500000, 70.500000) rotate(-315.000000) translate(-70.500000, -70.500000) " x="42" y="42" width="57" height="57"></rect>
                </g>
                <g id="Rectangle-2-+-Rectangle-5" transform="translate(220.000000, 0.000000)">
                    <rect id="Rectangle-2" fill="#000000" transform="translate(71.000000, 71.000000) rotate(-315.000000) translate(-71.000000, -71.000000) " x="21" y="21" width="100" height="100"></rect>
                    <rect id="Rectangle-3" fill="#FFFFFF" transform="translate(70.500000, 70.500000) rotate(-315.000000) translate(-70.500000, -70.500000) " x="42" y="42" width="57" height="57"></rect>
                </g>
                <g id="Rectangle-2-+-Rectangle-10" transform="translate(440.000000, 0.000000)">
                    <rect id="Rectangle-2" fill="#000000" transform="translate(71.000000, 71.000000) rotate(-315.000000) translate(-71.000000, -71.000000) " x="21" y="21" width="100" height="100"></rect>
                    <rect id="Rectangle-3" fill="#FFFFFF" transform="translate(70.500000, 70.500000) rotate(-315.000000) translate(-70.500000, -70.500000) " x="42" y="42" width="57" height="57"></rect>
                </g>
                <g id="Rectangle-2-+-Rectangle-9" transform="translate(769.000000, 0.000000)">
                    <rect id="Rectangle-2" fill="#000000" transform="translate(71.000000, 71.000000) rotate(-315.000000) translate(-71.000000, -71.000000) " x="21" y="21" width="100" height="100"></rect>
                    <rect id="Rectangle-3" fill="#FFFFFF" transform="translate(70.500000, 70.500000) rotate(-315.000000) translate(-70.500000, -70.500000) " x="42" y="42" width="57" height="57"></rect>
                </g>
                <g id="Rectangle-2-+-Rectangle-8" transform="translate(550.000000, 0.000000)">
                    <rect id="Rectangle-2" fill="#000000" transform="translate(71.000000, 71.000000) rotate(-315.000000) translate(-71.000000, -71.000000) " x="21" y="21" width="100" height="100"></rect>
                    <rect id="Rectangle-3" fill="#FFFFFF" transform="translate(70.500000, 70.500000) rotate(-315.000000) translate(-70.500000, -70.500000) " x="42" y="42" width="57" height="57"></rect>
                </g>
                <g id="Rectangle-2-+-Rectangle-7" transform="translate(660.000000, 0.000000)">
                    <rect id="Rectangle-2" fill="#000000" transform="translate(71.000000, 71.000000) rotate(-315.000000) translate(-71.000000, -71.000000) " x="21" y="21" width="100" height="100"></rect>
                    <rect id="Rectangle-3" fill="#FFFFFF" transform="translate(70.500000, 70.500000) rotate(-315.000000) translate(-70.500000, -70.500000) " x="42" y="42" width="57" height="57"></rect>
                </g>
            </g>
            <g id="Group-2" transform="translate(0.000000, 54.000000)" sketch:type="MSShapeGroup">
                <g id="Rectangle-2-+-Rectangle-3">
                    <rect id="Rectangle-2" fill="#000000" transform="translate(71.000000, 71.000000) rotate(-315.000000) translate(-71.000000, -71.000000) " x="21" y="21" width="100" height="100"></rect>
                    <rect id="Rectangle-3" fill="#FFFFFF" transform="translate(70.500000, 70.500000) rotate(-315.000000) translate(-70.500000, -70.500000) " x="42" y="42" width="57" height="57"></rect>
                </g>
                <g id="Rectangle-2-+-Rectangle-6" transform="translate(330.000000, 0.000000)">
                    <rect id="Rectangle-2" fill="#000000" transform="translate(71.000000, 71.000000) rotate(-315.000000) translate(-71.000000, -71.000000) " x="21" y="21" width="100" height="100"></rect>
                    <rect id="Rectangle-3" fill="#FFFFFF" transform="translate(70.500000, 70.500000) rotate(-315.000000) translate(-70.500000, -70.500000) " x="42" y="42" width="57" height="57"></rect>
                </g>
                <g id="Rectangle-2-+-Rectangle-4" transform="translate(110.000000, 0.000000)">
                    <rect id="Rectangle-2" fill="#000000" transform="translate(71.000000, 71.000000) rotate(-315.000000) translate(-71.000000, -71.000000) " x="21" y="21" width="100" height="100"></rect>
                    <rect id="Rectangle-3" fill="#FFFFFF" transform="translate(70.500000, 70.500000) rotate(-315.000000) translate(-70.500000, -70.500000) " x="42" y="42" width="57" height="57"></rect>
                </g>
                <g id="Rectangle-2-+-Rectangle-5" transform="translate(220.000000, 0.000000)">
                    <rect id="Rectangle-2" fill="#000000" transform="translate(71.000000, 71.000000) rotate(-315.000000) translate(-71.000000, -71.000000) " x="21" y="21" width="100" height="100"></rect>
                    <rect id="Rectangle-3" fill="#FFFFFF" transform="translate(70.500000, 70.500000) rotate(-315.000000) translate(-70.500000, -70.500000) " x="42" y="42" width="57" height="57"></rect>
                </g>
                <g id="Rectangle-2-+-Rectangle-10" transform="translate(440.000000, 0.000000)">
                    <rect id="Rectangle-2" fill="#000000" transform="translate(71.000000, 71.000000) rotate(-315.000000) translate(-71.000000, -71.000000) " x="21" y="21" width="100" height="100"></rect>
                    <rect id="Rectangle-3" fill="#FFFFFF" transform="translate(70.500000, 70.500000) rotate(-315.000000) translate(-70.500000, -70.500000) " x="42" y="42" width="57" height="57"></rect>
                </g>
                <g id="Rectangle-2-+-Rectangle-9" transform="translate(769.000000, 0.000000)">
                    <rect id="Rectangle-2" fill="#000000" transform="translate(71.000000, 71.000000) rotate(-315.000000) translate(-71.000000, -71.000000) " x="21" y="21" width="100" height="100"></rect>
                    <rect id="Rectangle-3" fill="#FFFFFF" transform="translate(70.500000, 70.500000) rotate(-315.000000) translate(-70.500000, -70.500000) " x="42" y="42" width="57" height="57"></rect>
                </g>
                <g id="Rectangle-2-+-Rectangle-8" transform="translate(550.000000, 0.000000)">
                    <rect id="Rectangle-2" fill="#000000" transform="translate(71.000000, 71.000000) rotate(-315.000000) translate(-71.000000, -71.000000) " x="21" y="21" width="100" height="100"></rect>
                    <rect id="Rectangle-3" fill="#FFFFFF" transform="translate(70.500000, 70.500000) rotate(-315.000000) translate(-70.500000, -70.500000) " x="42" y="42" width="57" height="57"></rect>
                </g>
                <g id="Rectangle-2-+-Rectangle-7" transform="translate(660.000000, 0.000000)">
                    <rect id="Rectangle-2" fill="#000000" transform="translate(71.000000, 71.000000) rotate(-315.000000) translate(-71.000000, -71.000000) " x="21" y="21" width="100" height="100"></rect>
                    <rect id="Rectangle-3" fill="#FFFFFF" transform="translate(70.500000, 70.500000) rotate(-315.000000) translate(-70.500000, -70.500000) " x="42" y="42" width="57" height="57"></rect>
                </g>
            </g>
        </g>
        <g id="Group-+-Group-4" sketch:type="MSLayerGroup" transform="translate(0.000000, 224.000000)" fill-opacity="0.156363225">
            <g id="Group" sketch:type="MSShapeGroup">
                <g id="Rectangle-2-+-Rectangle-3">
                    <rect id="Rectangle-2" fill="#000000" transform="translate(71.000000, 71.000000) rotate(-315.000000) translate(-71.000000, -71.000000) " x="21" y="21" width="100" height="100"></rect>
                    <rect id="Rectangle-3" fill="#FFFFFF" transform="translate(70.500000, 70.500000) rotate(-315.000000) translate(-70.500000, -70.500000) " x="42" y="42" width="57" height="57"></rect>
                </g>
                <g id="Rectangle-2-+-Rectangle-6" transform="translate(330.000000, 0.000000)">
                    <rect id="Rectangle-2" fill="#000000" transform="translate(71.000000, 71.000000) rotate(-315.000000) translate(-71.000000, -71.000000) " x="21" y="21" width="100" height="100"></rect>
                    <rect id="Rectangle-3" fill="#FFFFFF" transform="translate(70.500000, 70.500000) rotate(-315.000000) translate(-70.500000, -70.500000) " x="42" y="42" width="57" height="57"></rect>
                </g>
                <g id="Rectangle-2-+-Rectangle-4" transform="translate(110.000000, 0.000000)">
                    <rect id="Rectangle-2" fill="#000000" transform="translate(71.000000, 71.000000) rotate(-315.000000) translate(-71.000000, -71.000000) " x="21" y="21" width="100" height="100"></rect>
                    <rect id="Rectangle-3" fill="#FFFFFF" transform="translate(70.500000, 70.500000) rotate(-315.000000) translate(-70.500000, -70.500000) " x="42" y="42" width="57" height="57"></rect>
                </g>
                <g id="Rectangle-2-+-Rectangle-5" transform="translate(220.000000, 0.000000)">
                    <rect id="Rectangle-2" fill="#000000" transform="translate(71.000000, 71.000000) rotate(-315.000000) translate(-71.000000, -71.000000) " x="21" y="21" width="100" height="100"></rect>
                    <rect id="Rectangle-3" fill="#FFFFFF" transform="translate(70.500000, 70.500000) rotate(-315.000000) translate(-70.500000, -70.500000) " x="42" y="42" width="57" height="57"></rect>
                </g>
                <g id="Rectangle-2-+-Rectangle-10" transform="translate(440.000000, 0.000000)">
                    <rect id="Rectangle-2" fill="#000000" transform="translate(71.000000, 71.000000) rotate(-315.000000) translate(-71.000000, -71.000000) " x="21" y="21" width="100" height="100"></rect>
                    <rect id="Rectangle-3" fill="#FFFFFF" transform="translate(70.500000, 70.500000) rotate(-315.000000) translate(-70.500000, -70.500000) " x="42" y="42" width="57" height="57"></rect>
                </g>
                <g id="Rectangle-2-+-Rectangle-9" transform="translate(769.000000, 0.000000)">
                    <rect id="Rectangle-2" fill="#000000" transform="translate(71.000000, 71.000000) rotate(-315.000000) translate(-71.000000, -71.000000) " x="21" y="21" width="100" height="100"></rect>
                    <rect id="Rectangle-3" fill="#FFFFFF" transform="translate(70.500000, 70.500000) rotate(-315.000000) translate(-70.500000, -70.500000) " x="42" y="42" width="57" height="57"></rect>
                </g>
                <g id="Rectangle-2-+-Rectangle-8" transform="translate(550.000000, 0.000000)">
                    <rect id="Rectangle-2" fill="#000000" transform="translate(71.000000, 71.000000) rotate(-315.000000) translate(-71.000000, -71.000000) " x="21" y="21" width="100" height="100"></rect>
                    <rect id="Rectangle-3" fill="#FFFFFF" transform="translate(70.500000, 70.500000) rotate(-315.000000) translate(-70.500000, -70.500000) " x="42" y="42" width="57" height="57"></rect>
                </g>
                <g id="Rectangle-2-+-Rectangle-7" transform="translate(660.000000, 0.000000)">
                    <rect id="Rectangle-2" fill="#000000" transform="translate(71.000000, 71.000000) rotate(-315.000000) translate(-71.000000, -71.000000) " x="21" y="21" width="100" height="100"></rect>
                    <rect id="Rectangle-3" fill="#FFFFFF" transform="translate(70.500000, 70.500000) rotate(-315.000000) translate(-70.500000, -70.500000) " x="42" y="42" width="57" height="57"></rect>
                </g>
            </g>
            <g id="Group-2" transform="translate(0.000000, 54.000000)" sketch:type="MSShapeGroup">
                <g id="Rectangle-2-+-Rectangle-3">
                    <rect id="Rectangle-2" fill="#000000" transform="translate(71.000000, 71.000000) rotate(-315.000000) translate(-71.000000, -71.000000) " x="21" y="21" width="100" height="100"></rect>
                    <rect id="Rectangle-3" fill="#FFFFFF" transform="translate(70.500000, 70.500000) rotate(-315.000000) translate(-70.500000, -70.500000) " x="42" y="42" width="57" height="57"></rect>
                </g>
                <g id="Rectangle-2-+-Rectangle-6" transform="translate(330.000000, 0.000000)">
                    <rect id="Rectangle-2" fill="#000000" transform="translate(71.000000, 71.000000) rotate(-315.000000) translate(-71.000000, -71.000000) " x="21" y="21" width="100" height="100"></rect>
                    <rect id="Rectangle-3" fill="#FFFFFF" transform="translate(70.500000, 70.500000) rotate(-315.000000) translate(-70.500000, -70.500000) " x="42" y="42" width="57" height="57"></rect>
                </g>
                <g id="Rectangle-2-+-Rectangle-4" transform="translate(110.000000, 0.000000)">
                    <rect id="Rectangle-2" fill="#000000" transform="translate(71.000000, 71.000000) rotate(-315.000000) translate(-71.000000, -71.000000) " x="21" y="21" width="100" height="100"></rect>
                    <rect id="Rectangle-3" fill="#FFFFFF" transform="translate(70.500000, 70.500000) rotate(-315.000000) translate(-70.500000, -70.500000) " x="42" y="42" width="57" height="57"></rect>
                </g>
                <g id="Rectangle-2-+-Rectangle-5" transform="translate(220.000000, 0.000000)">
                    <rect id="Rectangle-2" fill="#000000" transform="translate(71.000000, 71.000000) rotate(-315.000000) translate(-71.000000, -71.000000) " x="21" y="21" width="100" height="100"></rect>
                    <rect id="Rectangle-3" fill="#FFFFFF" transform="translate(70.500000, 70.500000) rotate(-315.000000) translate(-70.500000, -70.500000) " x="42" y="42" width="57" height="57"></rect>
                </g>
                <g id="Rectangle-2-+-Rectangle-10" transform="translate(440.000000, 0.000000)">
                    <rect id="Rectangle-2" fill="#000000" transform="translate(71.000000, 71.000000) rotate(-315.000000) translate(-71.000000, -71.000000) " x="21" y="21" width="100" height="100"></rect>
                    <rect id="Rectangle-3" fill="#FFFFFF" transform="translate(70.500000, 70.500000) rotate(-315.000000) translate(-70.500000, -70.500000) " x="42" y="42" width="57" height="57"></rect>
                </g>
                <g id="Rectangle-2-+-Rectangle-9" transform="translate(769.000000, 0.000000)">
                    <rect id="Rectangle-2" fill="#000000" transform="translate(71.000000, 71.000000) rotate(-315.000000) translate(-71.000000, -71.000000) " x="21" y="21" width="100" height="100"></rect>
                    <rect id="Rectangle-3" fill="#FFFFFF" transform="translate(70.500000, 70.500000) rotate(-315.000000) translate(-70.500000, -70.500000) " x="42" y="42" width="57" height="57"></rect>
                </g>
                <g id="Rectangle-2-+-Rectangle-8" transform="translate(550.000000, 0.000000)">
                    <rect id="Rectangle-2" fill="#000000" transform="translate(71.000000, 71.000000) rotate(-315.000000) translate(-71.000000, -71.000000) " x="21" y="21" width="100" height="100"></rect>
                    <rect id="Rectangle-3" fill="#FFFFFF" transform="translate(70.500000, 70.500000) rotate(-315.000000) translate(-70.500000, -70.500000) " x="42" y="42" width="57" height="57"></rect>
                </g>
                <g id="Rectangle-2-+-Rectangle-7" transform="translate(660.000000, 0.000000)">
                    <rect id="Rectangle-2" fill="#000000" transform="translate(71.000000, 71.000000) rotate(-315.000000) translate(-71.000000, -71.000000) " x="21" y="21" width="100" height="100"></rect>
                    <rect id="Rectangle-3" fill="#FFFFFF" transform="translate(70.500000, 70.500000) rotate(-315.000000) translate(-70.500000, -70.500000) " x="42" y="42" width="57" height="57"></rect>
                </g>
            </g>
        </g>
    </g>
</svg>