<?xml version="1.0" encoding="UTF-8" standalone="no"?>
<svg width="813px" height="395px" viewBox="0 0 813 395" version="1.1" xmlns="http://www.w3.org/2000/svg" xmlns:xlink="http://www.w3.org/1999/xlink" xmlns:sketch="http://www.bohemiancoding.com/sketch/ns">
    <!-- Generator: Sketch 3.0.3 (7891) - http://www.bohemiancoding.com/sketch -->
    <title>vbg2</title>
    <desc>Created with Sketch.</desc>
    <defs></defs>
    <g id="Page-1" stroke="none" stroke-width="1" fill="none" fill-rule="evenodd" sketch:type="MSPage">
        <rect id="Rectangle-1" fill-opacity="0.108837183" fill="#FF5ADF" sketch:type="MSShapeGroup" x="0" y="0" width="813" height="395"></rect>
        <g id="Group" sketch:type="MSLayerGroup" transform="translate(1.000000, 0.000000)" fill-opacity="0.375226449">
            <g id="Rectangle-2-+-Rectangle-3" sketch:type="MSShapeGroup">
                <rect id="Rectangle-2" fill="#FFB8B8" transform="translate(75.500000, 75.500000) rotate(-315.000000) translate(-75.500000, -75.500000) " x="22" y="22" width="107" height="107"></rect>
                <rect id="Rectangle-3" fill="#FFFFFF" transform="translate(75.000000, 75.000000) rotate(-315.000000) translate(-75.000000, -75.000000) " x="42" y="42" width="66" height="66"></rect>
            </g>
            <g id="Rectangle-2-+-Rectangle-4" transform="translate(59.000000, 0.000000)" sketch:type="MSShapeGroup">
                <rect id="Rectangle-2" fill="#FFB8B8" transform="translate(75.500000, 75.500000) rotate(-315.000000) translate(-75.500000, -75.500000) " x="22" y="22" width="107" height="107"></rect>
                <rect id="Rectangle-3" fill="#FFFFFF" transform="translate(75.000000, 75.000000) rotate(-315.000000) translate(-75.000000, -75.000000) " x="42" y="42" width="66" height="66"></rect>
            </g>
            <g id="Rectangle-2-+-Rectangle-6" transform="translate(120.000000, 0.000000)" sketch:type="MSShapeGroup">
                <rect id="Rectangle-2" fill="#FFB8B8" transform="translate(75.500000, 75.500000) rotate(-315.000000) translate(-75.500000, -75.500000) " x="22" y="22" width="107" height="107"></rect>
                <rect id="Rectangle-3" fill="#FFFFFF" transform="translate(75.000000, 75.000000) rotate(-315.000000) translate(-75.000000, -75.000000) " x="42" y="42" width="66" height="66"></rect>
            </g>
            <g id="Rectangle-2-+-Rectangle-5" transform="translate(179.000000, 0.000000)" sketch:type="MSShapeGroup">
                <rect id="Rectangle-2" fill="#FFB8B8" transform="translate(75.500000, 75.500000) rotate(-315.000000) translate(-75.500000, -75.500000) " x="22" y="22" width="107" height="107"></rect>
                <rect id="Rectangle-3" fill="#FFFFFF" transform="translate(75.000000, 75.000000) rotate(-315.000000) translate(-75.000000, -75.000000) " x="42" y="42" width="66" height="66"></rect>
            </g>
            <g id="Rectangle-2-+-Rectangle-10" transform="translate(241.000000, 0.000000)" sketch:type="MSShapeGroup">
                <rect id="Rectangle-2" fill="#FFB8B8" transform="translate(75.500000, 75.500000) rotate(-315.000000) translate(-75.500000, -75.500000) " x="22" y="22" width="107" height="107"></rect>
                <rect id="Rectangle-3" fill="#FFFFFF" transform="translate(75.000000, 75.000000) rotate(-315.000000) translate(-75.000000, -75.000000) " x="42" y="42" width="66" height="66"></rect>
            </g>
            <g id="Rectangle-2-+-Rectangle-9" transform="translate(300.000000, 0.000000)" sketch:type="MSShapeGroup">
                <rect id="Rectangle-2" fill="#FFB8B8" transform="translate(75.500000, 75.500000) rotate(-315.000000) translate(-75.500000, -75.500000) " x="22" y="22" width="107" height="107"></rect>
                <rect id="Rectangle-3" fill="#FFFFFF" transform="translate(75.000000, 75.000000) rotate(-315.000000) translate(-75.000000, -75.000000) " x="42" y="42" width="66" height="66"></rect>
            </g>
            <g id="Rectangle-2-+-Rectangle-8" transform="translate(361.000000, 0.000000)" sketch:type="MSShapeGroup">
                <rect id="Rectangle-2" fill="#FFB8B8" transform="translate(75.500000, 75.500000) rotate(-315.000000) translate(-75.500000, -75.500000) " x="22" y="22" width="107" height="107"></rect>
                <rect id="Rectangle-3" fill="#FFFFFF" transform="translate(75.000000, 75.000000) rotate(-315.000000) translate(-75.000000, -75.000000) " x="42" y="42" width="66" height="66"></rect>
            </g>
            <g id="Rectangle-2-+-Rectangle-7" transform="translate(420.000000, 0.000000)" sketch:type="MSShapeGroup">
                <rect id="Rectangle-2" fill="#FFB8B8" transform="translate(75.500000, 75.500000) rotate(-315.000000) translate(-75.500000, -75.500000) " x="22" y="22" width="107" height="107"></rect>
                <rect id="Rectangle-3" fill="#FFFFFF" transform="translate(75.000000, 75.000000) rotate(-315.000000) translate(-75.000000, -75.000000) " x="42" y="42" width="66" height="66"></rect>
            </g>
            <g id="Rectangle-2-+-Rectangle-15" transform="translate(479.000000, 0.000000)" sketch:type="MSShapeGroup">
                <rect id="Rectangle-2" fill="#FFB8B8" transform="translate(75.500000, 75.500000) rotate(-315.000000) translate(-75.500000, -75.500000) " x="22" y="22" width="107" height="107"></rect>
                <rect id="Rectangle-3" fill="#FFFFFF" transform="translate(75.000000, 75.000000) rotate(-315.000000) translate(-75.000000, -75.000000) " x="42" y="42" width="66" height="66"></rect>
            </g>
            <g id="Rectangle-2-+-Rectangle-14" transform="translate(541.000000, 0.000000)" sketch:type="MSShapeGroup">
                <rect id="Rectangle-2" fill="#FFB8B8" transform="translate(75.500000, 75.500000) rotate(-315.000000) translate(-75.500000, -75.500000) " x="22" y="22" width="107" height="107"></rect>
                <rect id="Rectangle-3" fill="#FFFFFF" transform="translate(75.000000, 75.000000) rotate(-315.000000) translate(-75.000000, -75.000000) " x="42" y="42" width="66" height="66"></rect>
            </g>
            <g id="Rectangle-2-+-Rectangle-13" transform="translate(600.000000, 0.000000)" sketch:type="MSShapeGroup">
                <rect id="Rectangle-2" fill="#FFB8B8" transform="translate(75.500000, 75.500000) rotate(-315.000000) translate(-75.500000, -75.500000) " x="22" y="22" width="107" height="107"></rect>
                <rect id="Rectangle-3" fill="#FFFFFF" transform="translate(75.000000, 75.000000) rotate(-315.000000) translate(-75.000000, -75.000000) " x="42" y="42" width="66" height="66"></rect>
            </g>
            <g id="Rectangle-2-+-Rectangle-12" transform="translate(661.000000, 0.000000)" sketch:type="MSShapeGroup">
                <rect id="Rectangle-2" fill="#FFB8B8" transform="translate(75.500000, 75.500000) rotate(-315.000000) translate(-75.500000, -75.500000) " x="22" y="22" width="107" height="107"></rect>
                <rect id="Rectangle-3" fill="#FFFFFF" transform="translate(75.000000, 75.000000) rotate(-315.000000) translate(-75.000000, -75.000000) " x="42" y="42" width="66" height="66"></rect>
            </g>
        </g>
        <g id="Group-2" sketch:type="MSLayerGroup" transform="translate(1.000000, 121.000000)" fill-opacity="0.375226449">
            <g id="Rectangle-2-+-Rectangle-3" sketch:type="MSShapeGroup">
                <rect id="Rectangle-2" fill="#FFB8B8" transform="translate(75.500000, 75.500000) rotate(-315.000000) translate(-75.500000, -75.500000) " x="22" y="22" width="107" height="107"></rect>
                <rect id="Rectangle-3" fill="#FFFFFF" transform="translate(75.000000, 75.000000) rotate(-315.000000) translate(-75.000000, -75.000000) " x="42" y="42" width="66" height="66"></rect>
            </g>
            <g id="Rectangle-2-+-Rectangle-4" transform="translate(59.000000, 0.000000)" sketch:type="MSShapeGroup">
                <rect id="Rectangle-2" fill="#FFB8B8" transform="translate(75.500000, 75.500000) rotate(-315.000000) translate(-75.500000, -75.500000) " x="22" y="22" width="107" height="107"></rect>
                <rect id="Rectangle-3" fill="#FFFFFF" transform="translate(75.000000, 75.000000) rotate(-315.000000) translate(-75.000000, -75.000000) " x="42" y="42" width="66" height="66"></rect>
            </g>
            <g id="Rectangle-2-+-Rectangle-6" transform="translate(120.000000, 0.000000)" sketch:type="MSShapeGroup">
                <rect id="Rectangle-2" fill="#FFB8B8" transform="translate(75.500000, 75.500000) rotate(-315.000000) translate(-75.500000, -75.500000) " x="22" y="22" width="107" height="107"></rect>
                <rect id="Rectangle-3" fill="#FFFFFF" transform="translate(75.000000, 75.000000) rotate(-315.000000) translate(-75.000000, -75.000000) " x="42" y="42" width="66" height="66"></rect>
            </g>
            <g id="Rectangle-2-+-Rectangle-5" transform="translate(179.000000, 0.000000)" sketch:type="MSShapeGroup">
                <rect id="Rectangle-2" fill="#FFB8B8" transform="translate(75.500000, 75.500000) rotate(-315.000000) translate(-75.500000, -75.500000) " x="22" y="22" width="107" height="107"></rect>
                <rect id="Rectangle-3" fill="#FFFFFF" transform="translate(75.000000, 75.000000) rotate(-315.000000) translate(-75.000000, -75.000000) " x="42" y="42" width="66" height="66"></rect>
            </g>
            <g id="Rectangle-2-+-Rectangle-10" transform="translate(241.000000, 0.000000)" sketch:type="MSShapeGroup">
                <rect id="Rectangle-2" fill="#FFB8B8" transform="translate(75.500000, 75.500000) rotate(-315.000000) translate(-75.500000, -75.500000) " x="22" y="22" width="107" height="107"></rect>
                <rect id="Rectangle-3" fill="#FFFFFF" transform="translate(75.000000, 75.000000) rotate(-315.000000) translate(-75.000000, -75.000000) " x="42" y="42" width="66" height="66"></rect>
            </g>
            <g id="Rectangle-2-+-Rectangle-9" transform="translate(300.000000, 0.000000)" sketch:type="MSShapeGroup">
                <rect id="Rectangle-2" fill="#FFB8B8" transform="translate(75.500000, 75.500000) rotate(-315.000000) translate(-75.500000, -75.500000) " x="22" y="22" width="107" height="107"></rect>
                <rect id="Rectangle-3" fill="#FFFFFF" transform="translate(75.000000, 75.000000) rotate(-315.000000) translate(-75.000000, -75.000000) " x="42" y="42" width="66" height="66"></rect>
            </g>
            <g id="Rectangle-2-+-Rectangle-8" transform="translate(361.000000, 0.000000)" sketch:type="MSShapeGroup">
                <rect id="Rectangle-2" fill="#FFB8B8" transform="translate(75.500000, 75.500000) rotate(-315.000000) translate(-75.500000, -75.500000) " x="22" y="22" width="107" height="107"></rect>
                <rect id="Rectangle-3" fill="#FFFFFF" transform="translate(75.000000, 75.000000) rotate(-315.000000) translate(-75.000000, -75.000000) " x="42" y="42" width="66" height="66"></rect>
            </g>
            <g id="Rectangle-2-+-Rectangle-7" transform="translate(420.000000, 0.000000)" sketch:type="MSShapeGroup">
                <rect id="Rectangle-2" fill="#FFB8B8" transform="translate(75.500000, 75.500000) rotate(-315.000000) translate(-75.500000, -75.500000) " x="22" y="22" width="107" height="107"></rect>
                <rect id="Rectangle-3" fill="#FFFFFF" transform="translate(75.000000, 75.000000) rotate(-315.000000) translate(-75.000000, -75.000000) " x="42" y="42" width="66" height="66"></rect>
            </g>
            <g id="Rectangle-2-+-Rectangle-15" transform="translate(479.000000, 0.000000)" sketch:type="MSShapeGroup">
                <rect id="Rectangle-2" fill="#FFB8B8" transform="translate(75.500000, 75.500000) rotate(-315.000000) translate(-75.500000, -75.500000) " x="22" y="22" width="107" height="107"></rect>
                <rect id="Rectangle-3" fill="#FFFFFF" transform="translate(75.000000, 75.000000) rotate(-315.000000) translate(-75.000000, -75.000000) " x="42" y="42" width="66" height="66"></rect>
            </g>
            <g id="Rectangle-2-+-Rectangle-14" transform="translate(541.000000, 0.000000)" sketch:type="MSShapeGroup">
                <rect id="Rectangle-2" fill="#FFB8B8" transform="translate(75.500000, 75.500000) rotate(-315.000000) translate(-75.500000, -75.500000) " x="22" y="22" width="107" height="107"></rect>
                <rect id="Rectangle-3" fill="#FFFFFF" transform="translate(75.000000, 75.000000) rotate(-315.000000) translate(-75.000000, -75.000000) " x="42" y="42" width="66" height="66"></rect>
            </g>
            <g id="Rectangle-2-+-Rectangle-13" transform="translate(600.000000, 0.000000)" sketch:type="MSShapeGroup">
                <rect id="Rectangle-2" fill="#FFB8B8" transform="translate(75.500000, 75.500000) rotate(-315.000000) translate(-75.500000, -75.500000) " x="22" y="22" width="107" height="107"></rect>
                <rect id="Rectangle-3" fill="#FFFFFF" transform="translate(75.000000, 75.000000) rotate(-315.000000) translate(-75.000000, -75.000000) " x="42" y="42" width="66" height="66"></rect>
            </g>
            <g id="Rectangle-2-+-Rectangle-12" transform="translate(661.000000, 0.000000)" sketch:type="MSShapeGroup">
                <rect id="Rectangle-2" fill="#FFB8B8" transform="translate(75.500000, 75.500000) rotate(-315.000000) translate(-75.500000, -75.500000) " x="22" y="22" width="107" height="107"></rect>
                <rect id="Rectangle-3" fill="#FFFFFF" transform="translate(75.000000, 75.000000) rotate(-315.000000) translate(-75.000000, -75.000000) " x="42" y="42" width="66" height="66"></rect>
            </g>
        </g>
        <g id="Group-3" sketch:type="MSLayerGroup" transform="translate(1.000000, 244.000000)" fill-opacity="0.375226449">
            <g id="Rectangle-2-+-Rectangle-3" sketch:type="MSShapeGroup">
                <rect id="Rectangle-2" fill="#FFB8B8" transform="translate(75.500000, 75.500000) rotate(-315.000000) translate(-75.500000, -75.500000) " x="22" y="22" width="107" height="107"></rect>
                <rect id="Rectangle-3" fill="#FFFFFF" transform="translate(75.000000, 75.000000) rotate(-315.000000) translate(-75.000000, -75.000000) " x="42" y="42" width="66" height="66"></rect>
            </g>
            <g id="Rectangle-2-+-Rectangle-4" transform="translate(59.000000, 0.000000)" sketch:type="MSShapeGroup">
                <rect id="Rectangle-2" fill="#FFB8B8" transform="translate(75.500000, 75.500000) rotate(-315.000000) translate(-75.500000, -75.500000) " x="22" y="22" width="107" height="107"></rect>
                <rect id="Rectangle-3" fill="#FFFFFF" transform="translate(75.000000, 75.000000) rotate(-315.000000) translate(-75.000000, -75.000000) " x="42" y="42" width="66" height="66"></rect>
            </g>
            <g id="Rectangle-2-+-Rectangle-6" transform="translate(120.000000, 0.000000)" sketch:type="MSShapeGroup">
                <rect id="Rectangle-2" fill="#FFB8B8" transform="translate(75.500000, 75.500000) rotate(-315.000000) translate(-75.500000, -75.500000) " x="22" y="22" width="107" height="107"></rect>
                <rect id="Rectangle-3" fill="#FFFFFF" transform="translate(75.000000, 75.000000) rotate(-315.000000) translate(-75.000000, -75.000000) " x="42" y="42" width="66" height="66"></rect>
            </g>
            <g id="Rectangle-2-+-Rectangle-5" transform="translate(179.000000, 0.000000)" sketch:type="MSShapeGroup">
                <rect id="Rectangle-2" fill="#FFB8B8" transform="translate(75.500000, 75.500000) rotate(-315.000000) translate(-75.500000, -75.500000) " x="22" y="22" width="107" height="107"></rect>
                <rect id="Rectangle-3" fill="#FFFFFF" transform="translate(75.000000, 75.000000) rotate(-315.000000) translate(-75.000000, -75.000000) " x="42" y="42" width="66" height="66"></rect>
            </g>
            <g id="Rectangle-2-+-Rectangle-10" transform="translate(241.000000, 0.000000)" sketch:type="MSShapeGroup">
                <rect id="Rectangle-2" fill="#FFB8B8" transform="translate(75.500000, 75.500000) rotate(-315.000000) translate(-75.500000, -75.500000) " x="22" y="22" width="107" height="107"></rect>
                <rect id="Rectangle-3" fill="#FFFFFF" transform="translate(75.000000, 75.000000) rotate(-315.000000) translate(-75.000000, -75.000000) " x="42" y="42" width="66" height="66"></rect>
            </g>
            <g id="Rectangle-2-+-Rectangle-9" transform="translate(300.000000, 0.000000)" sketch:type="MSShapeGroup">
                <rect id="Rectangle-2" fill="#FFB8B8" transform="translate(75.500000, 75.500000) rotate(-315.000000) translate(-75.500000, -75.500000) " x="22" y="22" width="107" height="107"></rect>
                <rect id="Rectangle-3" fill="#FFFFFF" transform="translate(75.000000, 75.000000) rotate(-315.000000) translate(-75.000000, -75.000000) " x="42" y="42" width="66" height="66"></rect>
            </g>
            <g id="Rectangle-2-+-Rectangle-8" transform="translate(361.000000, 0.000000)" sketch:type="MSShapeGroup">
                <rect id="Rectangle-2" fill="#FFB8B8" transform="translate(75.500000, 75.500000) rotate(-315.000000) translate(-75.500000, -75.500000) " x="22" y="22" width="107" height="107"></rect>
                <rect id="Rectangle-3" fill="#FFFFFF" transform="translate(75.000000, 75.000000) rotate(-315.000000) translate(-75.000000, -75.000000) " x="42" y="42" width="66" height="66"></rect>
            </g>
            <g id="Rectangle-2-+-Rectangle-7" transform="translate(420.000000, 0.000000)" sketch:type="MSShapeGroup">
                <rect id="Rectangle-2" fill="#FFB8B8" transform="translate(75.500000, 75.500000) rotate(-315.000000) translate(-75.500000, -75.500000) " x="22" y="22" width="107" height="107"></rect>
                <rect id="Rectangle-3" fill="#FFFFFF" transform="translate(75.000000, 75.000000) rotate(-315.000000) translate(-75.000000, -75.000000) " x="42" y="42" width="66" height="66"></rect>
            </g>
            <g id="Rectangle-2-+-Rectangle-15" transform="translate(479.000000, 0.000000)" sketch:type="MSShapeGroup">
                <rect id="Rectangle-2" fill="#FFB8B8" transform="translate(75.500000, 75.500000) rotate(-315.000000) translate(-75.500000, -75.500000) " x="22" y="22" width="107" height="107"></rect>
                <rect id="Rectangle-3" fill="#FFFFFF" transform="translate(75.000000, 75.000000) rotate(-315.000000) translate(-75.000000, -75.000000) " x="42" y="42" width="66" height="66"></rect>
            </g>
            <g id="Rectangle-2-+-Rectangle-14" transform="translate(541.000000, 0.000000)" sketch:type="MSShapeGroup">
                <rect id="Rectangle-2" fill="#FFB8B8" transform="translate(75.500000, 75.500000) rotate(-315.000000) translate(-75.500000, -75.500000) " x="22" y="22" width="107" height="107"></rect>
                <rect id="Rectangle-3" fill="#FFFFFF" transform="translate(75.000000, 75.000000) rotate(-315.000000) translate(-75.000000, -75.000000) " x="42" y="42" width="66" height="66"></rect>
            </g>
            <g id="Rectangle-2-+-Rectangle-13" transform="translate(600.000000, 0.000000)" sketch:type="MSShapeGroup">
                <rect id="Rectangle-2" fill="#FFB8B8" transform="translate(75.500000, 75.500000) rotate(-315.000000) translate(-75.500000, -75.500000) " x="22" y="22" width="107" height="107"></rect>
                <rect id="Rectangle-3" fill="#FFFFFF" transform="translate(75.000000, 75.000000) rotate(-315.000000) translate(-75.000000, -75.000000) " x="42" y="42" width="66" height="66"></rect>
            </g>
            <g id="Rectangle-2-+-Rectangle-12" transform="translate(661.000000, 0.000000)" sketch:type="MSShapeGroup">
                <rect id="Rectangle-2" fill="#FFB8B8" transform="translate(75.500000, 75.500000) rotate(-315.000000) translate(-75.500000, -75.500000) " x="22" y="22" width="107" height="107"></rect>
                <rect id="Rectangle-3" fill="#FFFFFF" transform="translate(75.000000, 75.000000) rotate(-315.000000) translate(-75.000000, -75.000000) " x="42" y="42" width="66" height="66"></rect>
            </g>
        </g>
    </g>
</svg>